<svg xmlns="http://www.w3.org/2000/svg" version="1.1" xmlns:xlink="http://www.w3.org/1999/xlink" xmlns:svgjs="http://svgjs.dev/svgjs" width="1000" height="1000" viewBox="0 0 1000 1000"><rect width="1000" height="1000" fill="#ffffff"></rect><g transform="matrix(0.7,0,0,0.7,149.57575757575756,417.94217111133366)"><svg viewBox="0 0 396 93" data-background-color="#ffffff" preserveAspectRatio="xMidYMid meet" height="234" width="1000" xmlns="http://www.w3.org/2000/svg" xmlns:xlink="http://www.w3.org/1999/xlink"><g id="tight-bounds" transform="matrix(1,0,0,1,0.2400000000000091,0.08960980858347511)"><svg viewBox="0 0 395.52 92.82078038283305" height="92.82078038283305" width="395.52"><g><svg viewBox="0 0 548.5004727962657 128.7222945117877" height="92.82078038283305" width="395.52"><g><rect width="5.919096517013574" height="111.77044385972881" x="411.015017060245" y="8.475925326029447" fill="#3847eb" opacity="1" stroke-width="0" stroke="transparent" fill-opacity="1" class="rect-qz-0" data-fill-palette-color="primary" rx="1%" id="qz-0" data-palette-color="#3847eb"></rect></g><g transform="matrix(1,0,0,1,0,17.790128981006845)"><svg viewBox="0 0 395.52000000000004 93.14203654977402" height="93.14203654977402" width="395.52000000000004"><g id="textblocktransform"><svg viewBox="0 0 395.52000000000004 93.14203654977402" height="93.14203654977402" width="395.52000000000004" id="textblock"><g><svg viewBox="0 0 395.52000000000004 65.63571502501294" height="65.63571502501294" width="395.52000000000004"><g transform="matrix(1,0,0,1,0,0)"><svg width="395.52000000000004" viewBox="2 -35.7 289.82 48.1" height="65.63571502501294" data-palette-color="#3847eb"><path d="M18.7-32.2L10.4-31.7 10.4-4.5Q13.3-2.8 18.3-2.8L18.3-2.8Q24.25-2.8 28.8-6.05L28.8-6.05Q31.1-7.7 32.45-10.65 33.8-13.6 33.8-17.32 33.8-21.05 32.33-23.95 30.85-26.85 28.5-28.6L28.5-28.6Q23.75-32.2 18.7-32.2L18.7-32.2ZM2-35L9.7-35 22.1-35.5Q29.05-35.5 33.08-31 37.1-26.5 37.1-18.98 37.1-11.45 31.33-5.73 25.55 0 17.8 0L17.8 0 2 0 2-1.5 3.7-1.5Q5.2-1.5 5.65-2.05 6.1-2.6 6.1-3.7L6.1-3.7 6.1-31.3Q6.1-32.45 5.63-32.98 5.15-33.5 3.7-33.5L3.7-33.5 2-33.5 2-35ZM45.72-34.8Q46.85-34.8 47.47-34.05 48.1-33.3 48.1-32.13 48.1-30.95 47.15-30.18 46.2-29.4 45.07-29.4 43.95-29.4 43.32-30.15 42.7-30.9 42.7-32.02 42.7-33.15 43.65-33.98 44.6-34.8 45.72-34.8ZM51.2-1.4L51.2 0 41.1 0 41.1-1.4 41.9-1.4Q43.25-1.4 43.62-1.85 44-2.3 44-3.3L44-3.3 44-18.3Q44-19.25 43.37-19.68 42.75-20.1 41.1-20.1L41.1-20.1 41.1-21.5Q42.1-21.5 44.12-22.23 46.15-22.95 47.2-23.6L47.2-23.6 48.1-23.8 48.1-3.6Q48.1-2.8 48.17-2.45 48.25-2.1 48.75-1.75 49.25-1.4 50.3-1.4L50.3-1.4 51.2-1.4ZM64.55 0.5L63.75 0.7 56.15-19.6Q55.7-20.75 55.17-21.28 54.65-21.8 53.55-21.8L53.55-21.8 52.85-21.8 52.85-23.3 62.15-23.3 62.05-21.8 61.55-21.8Q60.05-21.8 60.05-20.9L60.05-20.9Q60.05-20.3 60.15-20.1L60.15-20.1 65.75-5.4 71.45-19.8Q71.85-20.6 71.85-21.05 71.85-21.5 71.32-21.65 70.8-21.8 68.95-21.8L68.95-21.8 68.35-21.8 68.35-23.3 77.75-23.3 77.75-21.8 77.35-21.8Q75.75-21.8 75.07-21.3 74.4-20.8 73.85-19.4L73.85-19.4 67.25-2.5Q66.85-2.5 65.7-1.18 64.55 0.15 64.55 0.5L64.55 0.5ZM77.14 11.6L77.14 11.6 77.94 7.7 78.64 7.7Q78.74 8.25 79.54 8.93 80.34 9.6 81.24 9.6L81.24 9.6Q84.34 9.6 85.64 7.5 86.94 5.4 88.34-0.1L88.34-0.1 80.74-19.8Q80.29-20.85 79.79-21.33 79.29-21.8 78.24-21.8L78.24-21.8 77.54-21.8 77.54-23.3 87.34-23.3 87.34-21.8 87.04-21.8Q84.94-21.8 84.94-20.6L84.94-20.6Q84.94-20.35 85.44-19L85.44-19 90.54-5.4 96.14-19.5Q96.74-20.7 96.74-21L96.74-21Q96.74-21.45 96.17-21.63 95.59-21.8 93.84-21.8L93.84-21.8 93.44-21.8 93.44-23.3 102.74-23.3 102.74-21.8 102.24-21.8Q100.54-21.8 99.89-21.3 99.24-20.8 98.74-19.4L98.74-19.4 88.64 5.9Q87.29 9.2 85.42 10.8 83.54 12.4 80.34 12.4L80.34 12.4Q79.14 12.4 77.14 11.6ZM125.54-1.4L125.54 0 118.34 0 118.34-4Q115.84-1.3 114.19-0.3 112.54 0.7 109.72 0.7 106.89 0.7 105.32-0.63 103.74-1.95 103.74-4.35 103.74-6.75 105.82-9.03 107.89-11.3 110.67-12.48 113.44-13.65 115.54-14.28 117.64-14.9 118.34-14.9L118.34-14.9 118.34-16Q118.34-20.7 114.44-20.7L114.44-20.7Q111.74-20.7 109.42-19.55 107.09-18.4 105.94-16.6L105.94-16.6 104.94-17.5Q108.29-24 116.54-24L116.54-24Q118.64-24 120.02-22.88 121.39-21.75 121.87-20.25 122.34-18.75 122.34-16.9L122.34-16.9 122.34-3.4Q122.34-2.75 122.44-2.4 122.54-2.05 123.07-1.73 123.59-1.4 124.64-1.4L124.64-1.4 125.54-1.4ZM118.34-6.8L118.34-6.8 118.34-12.9Q114.44-12.15 111.09-9.9 107.74-7.65 107.74-5L107.74-5Q107.74-3.95 108.77-3.18 109.79-2.4 111.32-2.4 112.84-2.4 114.94-3.78 117.04-5.15 118.34-6.8ZM154.74-1.4L154.74 0 146.14 0 146.14-1.4 146.34-1.4Q146.89-1.4 147.26-1.95 147.64-2.5 147.64-3.3L147.64-3.3 147.64-16Q147.64-18.25 146.56-19.43 145.49-20.6 143.54-20.6L143.54-20.6Q140.74-20.6 138.59-17.6 136.44-14.6 136.44-13.1L136.44-13.1 136.44-3.6Q136.44-2.8 136.51-2.45 136.59-2.1 137.09-1.75 137.59-1.4 138.64-1.4L138.64-1.4 139.54-1.4 139.54 0 129.44 0 129.44-1.4 130.24-1.4Q131.59-1.4 131.96-1.85 132.34-2.3 132.34-3.3L132.34-3.3 132.34-18.3Q132.34-19.25 131.71-19.68 131.09-20.1 129.44-20.1L129.44-20.1 129.44-21.5Q130.44-21.5 132.46-22.23 134.49-22.95 135.54-23.6L135.54-23.6 136.44-23.8 136.44-17.4Q137.59-20.55 139.99-22.28 142.39-24 145.84-24L145.84-24Q147.64-24 148.89-23.2 150.14-22.4 150.69-21.15L150.69-21.15Q151.64-19 151.64-16.9L151.64-16.9 151.64-3.4Q151.64-2.7 151.74-2.35L151.74-2.35Q151.99-1.4 153.84-1.4L153.84-1.4 154.74-1.4ZM165.49-2.6L165.49-2.6 170.49-2.8Q176.19-2.8 178.39-1.58 180.59-0.35 180.59 2.35 180.59 5.05 179.04 7.05 177.49 9.05 174.99 10.2L174.99 10.2Q170.04 12.4 164.39 12.4L164.39 12.4Q161.09 12.4 159.04 10.83 156.99 9.25 156.99 6.9L156.99 6.9Q156.99 1.4 161.69-0.2L161.69-0.2Q160.54-0.2 159.81-0.7 159.09-1.2 159.09-1.83 159.09-2.45 159.29-3.05 159.49-3.65 159.94-4.28 160.39-4.9 160.71-5.28 161.04-5.65 161.79-6.4L161.79-6.4 162.79-7.4Q160.09-9.8 160.09-13.93 160.09-18.05 163.19-21.08 166.29-24.1 169.99-24.1L169.99-24.1Q172.29-24.1 174.09-22.8L174.09-22.8Q176.19-25.2 181.09-25.2L181.09-25.2 180.59-20.9Q180.29-21.35 179.54-21.78 178.79-22.2 178.39-22.2L178.39-22.2Q177.04-22.2 175.59-21.3L175.59-21.3Q177.49-19.1 177.49-16L177.49-16Q177.49-12.1 174.49-9.05 171.49-6 167.69-6L167.69-6Q165.74-6 164.49-6.7L164.49-6.7Q162.39-4.2 162.39-3.6L162.39-3.6Q162.39-2.6 165.49-2.6ZM167.99-0.1L167.99-0.1 164.49-0.1Q162.94 0.85 162.44 1.35 161.94 1.85 161.59 2.3 161.24 2.75 160.99 3.2L160.99 3.2Q160.49 4.25 160.49 5.55 160.49 6.85 161.69 7.8L161.69 7.8Q163.74 9.3 167.41 9.3 171.09 9.3 174.24 8.05 177.39 6.8 177.39 4.6 177.39 2.4 174.84 1.15 172.29-0.1 167.99-0.1ZM163.29-15.68Q163.29-13 165.16-10.95 167.04-8.9 169.39-8.9 171.74-8.9 173.01-10.38 174.29-11.85 174.29-14.33 174.29-16.8 172.46-19 170.64-21.2 168.19-21.2 165.74-21.2 164.51-19.78 163.29-18.35 163.29-15.68ZM194.98-2.4L194.98-2.4 195.68-8.9 197.38-8.8Q197.38-6.05 200.66-4.38 203.93-2.7 208.11-2.7 212.28-2.7 214.38-3.98 216.48-5.25 216.48-7.2L216.48-7.2Q216.48-10.5 212.98-13.1L212.98-13.1Q211.53-14.15 209.93-14.95L209.93-14.95Q206.28-16.85 205.36-17.38 204.43-17.9 203.28-18.45 202.13-19 201.16-19.63 200.18-20.25 199.08-21.15L199.08-21.15Q196.58-23.15 196.58-25.63 196.58-28.1 197.46-29.95 198.33-31.8 199.66-32.85 200.98-33.9 202.78-34.6L202.78-34.6Q205.83-35.7 209.61-35.7 213.38-35.7 216.88-33.8L216.88-33.8 216.28-28 214.58-28Q214.58-32.7 206.68-32.7L206.68-32.7Q203.03-32.7 201.21-31.55 199.38-30.4 199.38-28.4L199.38-28.4Q199.38-25.2 209.78-20.7L209.78-20.7Q216.63-17.75 218.53-14.15L218.53-14.15Q219.48-12.35 219.48-10.2L219.48-10.2Q219.48-5 215.31-2.15 211.13 0.7 205.23 0.7 199.33 0.7 194.98-2.4ZM242.28-6.1L242.28-6.1 243.18-5.2Q239.98 0.7 231.68 0.7L231.68 0.7Q227.83 0.7 225.1-2.7 222.38-6.1 222.38-10.3L222.38-10.3Q222.38-15.95 226.05-19.98 229.73-24 234.98-24L234.98-24Q237.48-24 239.38-22.55L239.38-22.55Q242.78-19.9 242.78-15.7L242.78-15.7Q242.78-15.1 242.55-14.25 242.33-13.4 242.18-13.4L242.18-13.4 226.08-12.9Q226.08-9 228.53-5.7 230.98-2.4 234.48-2.4L234.48-2.4Q236.98-2.4 239.1-3.43 241.23-4.45 242.28-6.1ZM226.58-14.9L226.58-14.9 238.28-15.4Q238.38-15.4 238.38-16.3L238.38-16.3Q238.38-18.9 236.85-20 235.33-21.1 232.65-21.1 229.98-21.1 228.28-19.45 226.58-17.8 226.58-14.9ZM256.38 0.5L255.58 0.7 247.98-19.6Q247.53-20.75 247-21.28 246.48-21.8 245.38-21.8L245.38-21.8 244.68-21.8 244.68-23.3 253.98-23.3 253.88-21.8 253.38-21.8Q251.88-21.8 251.88-20.9L251.88-20.9Q251.88-20.3 251.98-20.1L251.98-20.1 257.58-5.4 263.28-19.8Q263.68-20.6 263.68-21.05 263.68-21.5 263.15-21.65 262.63-21.8 260.78-21.8L260.78-21.8 260.18-21.8 260.18-23.3 269.58-23.3 269.58-21.8 269.18-21.8Q267.58-21.8 266.9-21.3 266.23-20.8 265.68-19.4L265.68-19.4 259.08-2.5Q258.68-2.5 257.53-1.18 256.38 0.15 256.38 0.5L256.38 0.5ZM291.82-1.4L291.82 0 284.62 0 284.62-4Q282.12-1.3 280.47-0.3 278.82 0.7 276 0.7 273.17 0.7 271.6-0.63 270.02-1.95 270.02-4.35 270.02-6.75 272.1-9.03 274.17-11.3 276.95-12.48 279.72-13.65 281.82-14.28 283.92-14.9 284.62-14.9L284.62-14.9 284.62-16Q284.62-20.7 280.72-20.7L280.72-20.7Q278.02-20.7 275.7-19.55 273.37-18.4 272.22-16.6L272.22-16.6 271.22-17.5Q274.57-24 282.82-24L282.82-24Q284.92-24 286.3-22.88 287.67-21.75 288.15-20.25 288.62-18.75 288.62-16.9L288.62-16.9 288.62-3.4Q288.62-2.75 288.72-2.4 288.82-2.05 289.35-1.73 289.87-1.4 290.92-1.4L290.92-1.4 291.82-1.4ZM284.62-6.8L284.62-6.8 284.62-12.9Q280.72-12.15 277.37-9.9 274.02-7.65 274.02-5L274.02-5Q274.02-3.95 275.05-3.18 276.07-2.4 277.6-2.4 279.12-2.4 281.22-3.78 283.32-5.15 284.62-6.8Z" opacity="1" transform="matrix(1,0,0,1,0,0)" fill="#3847eb" class="wordmark-text-0" data-fill-palette-color="primary" id="text-0"></path></svg></g></svg></g><g transform="matrix(1,0,0,1,163.31020800000002,81.1307320852579)"><svg viewBox="0 0 232.20979200000002 12.01130446451613" height="12.01130446451613" width="232.20979200000002"><g transform="matrix(1,0,0,1,0,0)"><svg width="232.20979200000002" viewBox="0.75 -35.7 883.43 45.7" height="12.01130446451613" data-palette-color="#3847eb"><path d="M25.35 0L22.8-8.7 7.8-8.7 5.25 0 0.75 0 11.35-35 19.25-35 29.85 0 25.35 0ZM15.6-33.2L15-33.2 8.95-12.6 21.65-12.6 15.6-33.2ZM76.55-32.2L76.55-32.2Q76.55-33.65 77.57-34.68 78.6-35.7 80.05-35.7L80.05-35.7Q81.5-35.7 82.52-34.68 83.55-33.65 83.55-32.2L83.55-32.2Q83.55-30.75 82.52-29.73 81.5-28.7 80.05-28.7L80.05-28.7Q78.6-28.7 77.57-29.73 76.55-30.75 76.55-32.2ZM68.25-21.2L68.25-24.8 82.05-24.8 82.05 6.1Q82.05 7.8 80.97 8.9 79.9 10 78.2 10L78.2 10 67.05 10 67.05 6.4 76.8 6.4Q78.15 6.4 78.15 4.9L78.15 4.9 78.15-21.2 68.25-21.2ZM119.54-12.7L119.54-12.1Q119.54-9 118.52-6.63 117.49-4.25 115.79-2.63 114.09-1 111.82-0.15 109.54 0.7 107.09 0.7L107.09 0.7Q104.59 0.7 102.34-0.15 100.09-1 98.39-2.63 96.69-4.25 95.67-6.63 94.64-9 94.64-12.1L94.64-12.1 94.64-12.7Q94.64-15.75 95.67-18.13 96.69-20.5 98.42-22.15 100.14-23.8 102.39-24.65 104.64-25.5 107.09-25.5L107.09-25.5Q109.54-25.5 111.79-24.65 114.04-23.8 115.77-22.15 117.49-20.5 118.52-18.13 119.54-15.75 119.54-12.7L119.54-12.7ZM107.09-3L107.09-3Q108.89-3 110.42-3.63 111.94-4.25 113.09-5.45 114.24-6.65 114.89-8.33 115.54-10 115.54-12.1L115.54-12.1 115.54-12.7Q115.54-14.7 114.89-16.38 114.24-18.05 113.09-19.25 111.94-20.45 110.39-21.13 108.84-21.8 107.09-21.8L107.09-21.8Q105.34-21.8 103.79-21.13 102.24-20.45 101.09-19.25 99.94-18.05 99.29-16.38 98.64-14.7 98.64-12.7L98.64-12.7 98.64-12.1Q98.64-10 99.29-8.33 99.94-6.65 101.09-5.45 102.24-4.25 103.77-3.63 105.29-3 107.09-3ZM129.74-3.8L129.74 0 125.84 0 125.84-35 129.74-35 129.74-20.9 130.34-20.9Q131.64-23.15 133.94-24.33 136.24-25.5 138.94-25.5L138.94-25.5Q141.24-25.5 143.29-24.65 145.34-23.8 146.92-22.2 148.49-20.6 149.42-18.25 150.34-15.9 150.34-12.9L150.34-12.9 150.34-11.9Q150.34-8.85 149.44-6.5 148.54-4.15 146.97-2.55 145.39-0.95 143.29-0.13 141.19 0.7 138.84 0.7L138.84 0.7Q137.64 0.7 136.39 0.43 135.14 0.15 134.02-0.43 132.89-1 131.94-1.83 130.99-2.65 130.34-3.8L130.34-3.8 129.74-3.8ZM138.04-3L138.04-3Q139.84-3 141.34-3.63 142.84-4.25 143.97-5.4 145.09-6.55 145.72-8.2 146.34-9.85 146.34-11.9L146.34-11.9 146.34-12.9Q146.34-14.9 145.72-16.53 145.09-18.15 143.97-19.33 142.84-20.5 141.32-21.15 139.79-21.8 138.04-21.8L138.04-21.8Q136.29-21.8 134.79-21.13 133.29-20.45 132.17-19.25 131.04-18.05 130.39-16.38 129.74-14.7 129.74-12.7L129.74-12.7 129.74-12.1Q129.74-10.05 130.39-8.38 131.04-6.7 132.17-5.5 133.29-4.3 134.79-3.65 136.29-3 138.04-3ZM190.94-3.8L190.94 10 187.03 10 187.03-24.8 190.94-24.8 190.94-20.9 191.53-20.9Q192.84-23.15 195.14-24.33 197.44-25.5 200.14-25.5L200.14-25.5Q202.44-25.5 204.49-24.65 206.54-23.8 208.11-22.2 209.69-20.6 210.61-18.25 211.54-15.9 211.54-12.9L211.54-12.9 211.54-11.9Q211.54-8.85 210.64-6.5 209.74-4.15 208.16-2.55 206.59-0.95 204.49-0.13 202.39 0.7 200.03 0.7L200.03 0.7Q198.84 0.7 197.59 0.43 196.34 0.15 195.21-0.43 194.09-1 193.14-1.83 192.19-2.65 191.53-3.8L191.53-3.8 190.94-3.8ZM199.24-3L199.24-3Q201.03-3 202.53-3.63 204.04-4.25 205.16-5.4 206.29-6.55 206.91-8.2 207.54-9.85 207.54-11.9L207.54-11.9 207.54-12.9Q207.54-14.9 206.91-16.53 206.29-18.15 205.16-19.33 204.04-20.5 202.51-21.15 200.99-21.8 199.24-21.8L199.24-21.8Q197.49-21.8 195.99-21.13 194.49-20.45 193.36-19.25 192.24-18.05 191.59-16.38 190.94-14.7 190.94-12.7L190.94-12.7 190.94-12.1Q190.94-10.05 191.59-8.38 192.24-6.7 193.36-5.5 194.49-4.3 195.99-3.65 197.49-3 199.24-3ZM241.93-12.7L241.93-12.1Q241.93-9 240.91-6.63 239.88-4.25 238.18-2.63 236.48-1 234.21-0.15 231.93 0.7 229.48 0.7L229.48 0.7Q226.98 0.7 224.73-0.15 222.48-1 220.78-2.63 219.08-4.25 218.06-6.63 217.03-9 217.03-12.1L217.03-12.1 217.03-12.7Q217.03-15.75 218.06-18.13 219.08-20.5 220.81-22.15 222.53-23.8 224.78-24.65 227.03-25.5 229.48-25.5L229.48-25.5Q231.93-25.5 234.18-24.65 236.43-23.8 238.16-22.15 239.88-20.5 240.91-18.13 241.93-15.75 241.93-12.7L241.93-12.7ZM229.48-3L229.48-3Q231.28-3 232.81-3.63 234.33-4.25 235.48-5.45 236.63-6.65 237.28-8.33 237.93-10 237.93-12.1L237.93-12.1 237.93-12.7Q237.93-14.7 237.28-16.38 236.63-18.05 235.48-19.25 234.33-20.45 232.78-21.13 231.23-21.8 229.48-21.8L229.48-21.8Q227.73-21.8 226.18-21.13 224.63-20.45 223.48-19.25 222.33-18.05 221.68-16.38 221.03-14.7 221.03-12.7L221.03-12.7 221.03-12.1Q221.03-10 221.68-8.33 222.33-6.65 223.48-5.45 224.63-4.25 226.16-3.63 227.68-3 229.48-3ZM247.73-21.2L247.73-24.8 256.73-24.8 256.73-21.5 257.33-21.5Q258.28-23.55 260.03-24.53 261.78-25.5 264.03-25.5L264.03-25.5Q267.78-25.5 270.08-23.05 272.38-20.6 272.53-15.9L272.53-15.9 268.43-15.3Q268.43-18.75 266.78-20.28 265.13-21.8 262.73-21.8L262.73-21.8Q261.18-21.8 260.06-21.2 258.93-20.6 258.18-19.55 257.43-18.5 257.08-17.1 256.73-15.7 256.73-14.1L256.73-14.1 256.73-3.6 263.03-3.6 263.03 0 247.13 0 247.13-3.6 252.83-3.6 252.83-21.2 247.73-21.2ZM278.88-21.2L278.88-24.8 286.68-24.8 286.68-35 290.58-35 290.58-24.8 300.18-24.8 300.18-21.2 290.58-21.2 290.58-5.1Q290.58-3.6 291.93-3.6L291.93-3.6 298.98-3.6 298.98 0 290.53 0Q288.83 0 287.75-1.1 286.68-2.2 286.68-3.9L286.68-3.9 286.68-21.2 278.88-21.2ZM328.33-3.9L328.33-4.2 327.73-4.2Q326.53-1.7 324.4-0.5 322.28 0.7 319.93 0.7L319.93 0.7Q317.48 0.7 315.38-0.13 313.28-0.95 311.7-2.58 310.13-4.2 309.23-6.55 308.33-8.9 308.33-12L308.33-12 308.33-12.8Q308.33-15.85 309.23-18.2 310.13-20.55 311.7-22.18 313.28-23.8 315.38-24.65 317.48-25.5 319.83-25.5L319.83-25.5Q322.38-25.5 324.45-24.38 326.53-23.25 327.73-20.9L327.73-20.9 328.33-20.9 328.33-24.8 332.23-24.8 332.23-5.1Q332.23-3.6 333.58-3.6L333.58-3.6 334.83-3.6 334.83 0 332.18 0Q330.48 0 329.4-1.1 328.33-2.2 328.33-3.9L328.33-3.9ZM320.33-3L320.33-3Q322.08-3 323.55-3.65 325.03-4.3 326.08-5.5 327.13-6.7 327.73-8.38 328.33-10.05 328.33-12.1L328.33-12.1 328.33-12.7Q328.33-14.7 327.73-16.38 327.13-18.05 326.05-19.25 324.98-20.45 323.5-21.13 322.03-21.8 320.33-21.8L320.33-21.8Q318.58-21.8 317.13-21.15 315.68-20.5 314.6-19.33 313.53-18.15 312.93-16.48 312.33-14.8 312.33-12.8L312.33-12.8 312.33-12Q312.33-7.75 314.55-5.38 316.78-3 320.33-3ZM340.92 0L340.92-3.6 349.92-3.6 349.92-31.4 341.22-31.4 341.22-35 353.82-35 353.82-3.6 362.82-3.6 362.82 0 340.92 0ZM401.87-21.2L401.87-24.8 409.52-24.8 409.52-31.1Q409.52-32.8 410.59-33.9 411.67-35 413.37-35L413.37-35 423.17-35 423.17-31.4 414.77-31.4Q413.42-31.4 413.42-29.9L413.42-29.9 413.42-24.8 423.77-24.8 423.77-21.2 413.42-21.2 413.42 0 409.52 0 409.52-21.2 401.87-21.2ZM456.12-12.7L456.12-12.1Q456.12-9 455.09-6.63 454.07-4.25 452.37-2.63 450.67-1 448.39-0.15 446.12 0.7 443.67 0.7L443.67 0.7Q441.17 0.7 438.92-0.15 436.67-1 434.97-2.63 433.27-4.25 432.24-6.63 431.22-9 431.22-12.1L431.22-12.1 431.22-12.7Q431.22-15.75 432.24-18.13 433.27-20.5 434.99-22.15 436.72-23.8 438.97-24.65 441.22-25.5 443.67-25.5L443.67-25.5Q446.12-25.5 448.37-24.65 450.62-23.8 452.34-22.15 454.07-20.5 455.09-18.13 456.12-15.75 456.12-12.7L456.12-12.7ZM443.67-3L443.67-3Q445.47-3 446.99-3.63 448.52-4.25 449.67-5.45 450.82-6.65 451.47-8.33 452.12-10 452.12-12.1L452.12-12.1 452.12-12.7Q452.12-14.7 451.47-16.38 450.82-18.05 449.67-19.25 448.52-20.45 446.97-21.13 445.42-21.8 443.67-21.8L443.67-21.8Q441.92-21.8 440.37-21.13 438.82-20.45 437.67-19.25 436.52-18.05 435.87-16.38 435.22-14.7 435.22-12.7L435.22-12.7 435.22-12.1Q435.22-10 435.87-8.33 436.52-6.65 437.67-5.45 438.82-4.25 440.34-3.63 441.87-3 443.67-3ZM461.91-21.2L461.91-24.8 470.91-24.8 470.91-21.5 471.51-21.5Q472.46-23.55 474.21-24.53 475.96-25.5 478.21-25.5L478.21-25.5Q481.96-25.5 484.26-23.05 486.56-20.6 486.71-15.9L486.71-15.9 482.61-15.3Q482.61-18.75 480.96-20.28 479.31-21.8 476.91-21.8L476.91-21.8Q475.36-21.8 474.24-21.2 473.11-20.6 472.36-19.55 471.61-18.5 471.26-17.1 470.91-15.7 470.91-14.1L470.91-14.1 470.91-3.6 477.21-3.6 477.21 0 461.31 0 461.31-3.6 467.01-3.6 467.01-21.2 461.91-21.2ZM523.66-21.2L523.66-24.8 531.46-24.8 531.46-35 535.36-35 535.36-24.8 544.96-24.8 544.96-21.2 535.36-21.2 535.36-5.1Q535.36-3.6 536.71-3.6L536.71-3.6 543.76-3.6 543.76 0 535.31 0Q533.61 0 532.53-1.1 531.46-2.2 531.46-3.9L531.46-3.9 531.46-21.2 523.66-21.2ZM559.01-12.9L559.01 0 555.11 0 555.11-35 559.01-35 559.01-20.3 559.61-20.3Q560.76-22.7 562.83-24.1 564.91-25.5 567.91-25.5L567.91-25.5Q571.96-25.5 574.48-22.83 577.01-20.15 577.01-14.8L577.01-14.8 577.01 0 573.11 0 573.11-14Q573.11-17.9 571.36-19.85 569.61-21.8 566.61-21.8L566.61-21.8Q563.06-21.8 561.03-19.38 559.01-16.95 559.01-12.9L559.01-12.9ZM608.55-11.2L588.55-11.2Q588.7-7.5 590.85-5.25 593-3 596.85-3L596.85-3Q598.6-3 599.9-3.4 601.2-3.8 602.13-4.5 603.05-5.2 603.63-6.13 604.2-7.05 604.55-8.1L604.55-8.1 608.25-7.1Q607.2-3.65 604.38-1.48 601.55 0.7 596.75 0.7L596.75 0.7Q594.1 0.7 591.88-0.23 589.65-1.15 588.05-2.85 586.45-4.55 585.55-6.9 584.65-9.25 584.65-12.1L584.65-12.1 584.65-13.3Q584.65-15.9 585.58-18.15 586.5-20.4 588.15-22.03 589.8-23.65 592.03-24.58 594.25-25.5 596.85-25.5L596.85-25.5Q599.9-25.5 602.13-24.38 604.35-23.25 605.78-21.6 607.2-19.95 607.88-18 608.55-16.05 608.55-14.4L608.55-14.4 608.55-11.2ZM596.85-21.8L596.85-21.8Q595.2-21.8 593.78-21.28 592.35-20.75 591.28-19.8 590.2-18.85 589.53-17.57 588.85-16.3 588.65-14.8L588.65-14.8 604.65-14.8Q604.55-16.4 603.88-17.7 603.2-19 602.13-19.9 601.05-20.8 599.68-21.3 598.3-21.8 596.85-21.8ZM666.1 0L666.1-3.8 665.5-3.8Q664.9-2.65 663.97-1.8 663.05-0.95 661.97-0.4 660.9 0.15 659.7 0.43 658.5 0.7 657.4 0.7L657.4 0.7Q654.9 0.7 652.75-0.15 650.6-1 648.97-2.6 647.35-4.2 646.42-6.58 645.5-8.95 645.5-12L645.5-12 645.5-12.8Q645.5-15.8 646.45-18.18 647.4-20.55 649-22.18 650.6-23.8 652.75-24.65 654.9-25.5 657.3-25.5L657.3-25.5Q659.85-25.5 662.07-24.38 664.3-23.25 665.5-20.9L665.5-20.9 666.1-20.9 666.1-35 670-35 670 0 666.1 0ZM657.8-3L657.8-3Q659.55-3 661.05-3.65 662.55-4.3 663.67-5.5 664.8-6.7 665.45-8.38 666.1-10.05 666.1-12.1L666.1-12.1 666.1-12.7Q666.1-14.7 665.45-16.38 664.8-18.05 663.67-19.25 662.55-20.45 661.02-21.13 659.5-21.8 657.8-21.8L657.8-21.8Q656.05-21.8 654.52-21.15 653-20.5 651.87-19.3 650.75-18.1 650.12-16.45 649.5-14.8 649.5-12.8L649.5-12.8 649.5-12Q649.5-9.9 650.12-8.25 650.75-6.6 651.87-5.43 653-4.25 654.5-3.63 656-3 657.8-3ZM685.19-32.2L685.19-32.2Q685.19-33.65 686.22-34.68 687.25-35.7 688.69-35.7L688.69-35.7Q690.14-35.7 691.17-34.68 692.19-33.65 692.19-32.2L692.19-32.2Q692.19-30.75 691.17-29.73 690.14-28.7 688.69-28.7L688.69-28.7Q687.25-28.7 686.22-29.73 685.19-30.75 685.19-32.2ZM678.1 0L678.1-3.6 686.79-3.6 686.79-21.2 679-21.2 679-24.8 690.69-24.8 690.69-3.6 698.79-3.6 698.79 0 678.1 0ZM713.24-18.4L713.24-18.4Q713.24-16.6 714.77-15.65 716.29-14.7 720.34-14.4L720.34-14.4Q724.69-14.05 726.97-12.33 729.24-10.6 729.24-7.3L729.24-7.3 729.24-7Q729.24-5.2 728.52-3.78 727.79-2.35 726.52-1.35 725.24-0.35 723.42 0.18 721.59 0.7 719.44 0.7L719.44 0.7Q716.54 0.7 714.47-0.08 712.39-0.85 711.02-2.13 709.64-3.4 708.94-5.03 708.24-6.65 708.14-8.3L708.14-8.3 711.84-9.2Q712.09-6.35 714.04-4.63 715.99-2.9 719.24-2.9L719.24-2.9Q721.99-2.9 723.67-3.98 725.34-5.05 725.34-7L725.34-7Q725.34-9.1 723.69-10 722.04-10.9 718.34-11.15L718.34-11.15Q714.04-11.45 711.74-13.15 709.44-14.85 709.44-18.1L709.44-18.1 709.44-18.4Q709.44-20.15 710.19-21.48 710.94-22.8 712.22-23.7 713.49-24.6 715.09-25.05 716.69-25.5 718.44-25.5L718.44-25.5Q720.89-25.5 722.74-24.83 724.59-24.15 725.84-23.08 727.09-22 727.77-20.6 728.44-19.2 728.64-17.8L728.64-17.8 724.94-16.9Q724.69-19.3 723.02-20.65 721.34-22 718.64-22L718.64-22Q717.59-22 716.62-21.78 715.64-21.55 714.89-21.1 714.14-20.65 713.69-19.98 713.24-19.3 713.24-18.4ZM756.69-3.9L756.69-4.2 756.09-4.2Q754.89-1.7 752.76-0.5 750.64 0.7 748.29 0.7L748.29 0.7Q745.84 0.7 743.74-0.13 741.64-0.95 740.06-2.58 738.49-4.2 737.59-6.55 736.69-8.9 736.69-12L736.69-12 736.69-12.8Q736.69-15.85 737.59-18.2 738.49-20.55 740.06-22.18 741.64-23.8 743.74-24.65 745.84-25.5 748.19-25.5L748.19-25.5Q750.74-25.5 752.81-24.38 754.89-23.25 756.09-20.9L756.09-20.9 756.69-20.9 756.69-24.8 760.59-24.8 760.59-5.1Q760.59-3.6 761.94-3.6L761.94-3.6 763.19-3.6 763.19 0 760.54 0Q758.84 0 757.76-1.1 756.69-2.2 756.69-3.9L756.69-3.9ZM748.69-3L748.69-3Q750.44-3 751.91-3.65 753.39-4.3 754.44-5.5 755.49-6.7 756.09-8.38 756.69-10.05 756.69-12.1L756.69-12.1 756.69-12.7Q756.69-14.7 756.09-16.38 755.49-18.05 754.41-19.25 753.34-20.45 751.86-21.13 750.39-21.8 748.69-21.8L748.69-21.8Q746.94-21.8 745.49-21.15 744.04-20.5 742.96-19.33 741.89-18.15 741.29-16.48 740.69-14.8 740.69-12.8L740.69-12.8 740.69-12Q740.69-7.75 742.91-5.38 745.14-3 748.69-3ZM772.29-3.8L772.29 0 768.39 0 768.39-35 772.29-35 772.29-20.9 772.89-20.9Q774.19-23.15 776.49-24.33 778.79-25.5 781.49-25.5L781.49-25.5Q783.79-25.5 785.84-24.65 787.89-23.8 789.46-22.2 791.04-20.6 791.96-18.25 792.89-15.9 792.89-12.9L792.89-12.9 792.89-11.9Q792.89-8.85 791.99-6.5 791.09-4.15 789.51-2.55 787.94-0.95 785.84-0.13 783.74 0.7 781.39 0.7L781.39 0.7Q780.19 0.7 778.94 0.43 777.69 0.15 776.56-0.43 775.44-1 774.49-1.83 773.54-2.65 772.89-3.8L772.89-3.8 772.29-3.8ZM780.59-3L780.59-3Q782.39-3 783.89-3.63 785.39-4.25 786.51-5.4 787.64-6.55 788.26-8.2 788.89-9.85 788.89-11.9L788.89-11.9 788.89-12.9Q788.89-14.9 788.26-16.53 787.64-18.15 786.51-19.33 785.39-20.5 783.86-21.15 782.34-21.8 780.59-21.8L780.59-21.8Q778.84-21.8 777.34-21.13 775.84-20.45 774.71-19.25 773.59-18.05 772.94-16.38 772.29-14.7 772.29-12.7L772.29-12.7 772.29-12.1Q772.29-10.05 772.94-8.38 773.59-6.7 774.71-5.5 775.84-4.3 777.34-3.65 778.84-3 780.59-3ZM799.88 0L799.88-3.6 808.88-3.6 808.88-31.4 800.18-31.4 800.18-35 812.78-35 812.78-3.6 821.78-3.6 821.78 0 799.88 0ZM853.33-11.2L833.33-11.2Q833.48-7.5 835.63-5.25 837.78-3 841.63-3L841.63-3Q843.38-3 844.68-3.4 845.98-3.8 846.91-4.5 847.83-5.2 848.41-6.13 848.98-7.05 849.33-8.1L849.33-8.1 853.03-7.1Q851.98-3.65 849.16-1.48 846.33 0.7 841.53 0.7L841.53 0.7Q838.88 0.7 836.66-0.23 834.43-1.15 832.83-2.85 831.23-4.55 830.33-6.9 829.43-9.25 829.43-12.1L829.43-12.1 829.43-13.3Q829.43-15.9 830.36-18.15 831.28-20.4 832.93-22.03 834.58-23.65 836.81-24.58 839.03-25.5 841.63-25.5L841.63-25.5Q844.68-25.5 846.91-24.38 849.13-23.25 850.56-21.6 851.98-19.95 852.66-18 853.33-16.05 853.33-14.4L853.33-14.4 853.33-11.2ZM841.63-21.8L841.63-21.8Q839.98-21.8 838.56-21.28 837.13-20.75 836.06-19.8 834.98-18.85 834.31-17.57 833.63-16.3 833.43-14.8L833.43-14.8 849.43-14.8Q849.33-16.4 848.66-17.7 847.98-19 846.91-19.9 845.83-20.8 844.46-21.3 843.08-21.8 841.63-21.8ZM880.28 0L880.28-3.8 879.68-3.8Q879.08-2.65 878.15-1.8 877.23-0.95 876.15-0.4 875.08 0.15 873.88 0.43 872.68 0.7 871.58 0.7L871.58 0.7Q869.08 0.7 866.93-0.15 864.78-1 863.15-2.6 861.53-4.2 860.6-6.58 859.68-8.95 859.68-12L859.68-12 859.68-12.8Q859.68-15.8 860.63-18.18 861.58-20.55 863.18-22.18 864.78-23.8 866.93-24.65 869.08-25.5 871.48-25.5L871.48-25.5Q874.03-25.5 876.25-24.38 878.48-23.25 879.68-20.9L879.68-20.9 880.28-20.9 880.28-35 884.18-35 884.18 0 880.28 0ZM871.98-3L871.98-3Q873.73-3 875.23-3.65 876.73-4.3 877.85-5.5 878.98-6.7 879.63-8.38 880.28-10.05 880.28-12.1L880.28-12.1 880.28-12.7Q880.28-14.7 879.63-16.38 878.98-18.05 877.85-19.25 876.73-20.45 875.2-21.13 873.68-21.8 871.98-21.8L871.98-21.8Q870.23-21.8 868.7-21.15 867.18-20.5 866.05-19.3 864.93-18.1 864.3-16.45 863.68-14.8 863.68-12.8L863.68-12.8 863.68-12Q863.68-9.9 864.3-8.25 864.93-6.6 866.05-5.43 867.18-4.25 868.68-3.63 870.18-3 871.98-3Z" opacity="1" transform="matrix(1,0,0,1,0,0)" fill="#3847eb" class="slogan-text-1" data-fill-palette-color="secondary" id="text-1"></path></svg></g></svg></g></svg></g></svg></g><g transform="matrix(1,0,0,1,432.42913063750353,0)"><svg viewBox="0 0 116.07134215876216 128.7222945117877" height="128.7222945117877" width="116.07134215876216"><g><svg xmlns="http://www.w3.org/2000/svg" xmlns:xlink="http://www.w3.org/1999/xlink" version="1.1" x="0" y="0" viewBox="7.976 1.1730002105473716 87.51994685052108 97.05899978945263" enable-background="new 0 0 100 100" xml:space="preserve" height="128.7222945117877" width="116.07134215876216" class="icon-icon-0" data-fill-palette-color="accent" id="icon-0"><g fill="#3847eb" data-fill-palette-color="accent"><circle cx="36.38" cy="10.232" r="9.1" fill="#3847eb" data-fill-palette-color="accent"></circle><path d="M95.11 75.18c-0.846-1.576-2.81-2.17-4.388-1.325l-5.188 2.781c-0.003-0.005-0.006-0.012-0.009-0.017L69.564 55.321c-0.768-1.022-1.422-2.207-2.522-2.529C66.636 52.472 65.651 52 64.754 52H46v-4h13.459C61.535 48 63 46.112 63 44.037v-0.005C63 41.956 61.535 41 59.459 41H46V30.261C46 25.405 41.729 21 36.874 21h-2.473C29.545 21 25 25.405 25 30.261v26.292C25 61.408 29.545 65 34.401 65h1.878 3.102 25.373c0.009 0 0.016 0.171 0.023 0.171l12.874 17.263c1.385 1.849 3.878 3.123 5.849 2.566l0.021 0.047 10.266-5.493C95.363 78.709 95.957 76.757 95.11 75.18z" fill="#3847eb" data-fill-palette-color="accent"></path></g><path d="M67.645 79.028l-6.503-8.638c-1.638 10.73-10.93 18.981-22.113 18.981-12.335 0-22.192-10.035-22.192-22.371 0-4.725 1.164-9.114 4.164-12.729V41.772C13 47.458 7.976 56.648 7.976 67.001c0 17.221 13.92 31.231 31.142 31.231 12.895 0 23.945-7.857 28.704-19.036C67.776 79.142 67.688 79.087 67.645 79.028z" fill="#3847eb" data-fill-palette-color="accent"></path></svg></g></svg></g></svg></g><defs></defs></svg><rect width="395.52" height="92.82078038283305" fill="none" stroke="none" visibility="hidden"></rect></g></svg></g></svg>