
<svg xmlns="http://www.w3.org/2000/svg" xmlns:xlink="http://www.w3.org/1999/xlink" version="1.1" width="3162.150939601227" 
height="929.7509649125963" viewBox="0 0 3162.150939601227 929.7509649125963">
	
	<g transform="scale(8.107546980061342) translate(10, 10)">
		<defs id="SvgjsDefs1364"></defs><g id="SvgjsG1365" featureKey="Df7oLJ-0" transform="matrix(2.4915058421204286,0,0,2.4915058421204286,-64.77915189513115,-47.33861100028814)" fill="#01aac1"><g xmlns="http://www.w3.org/2000/svg"><g><path fill="#01aac1" d="M37,57c-6.065,0-11-4.935-11-11c0-4.854,3.25-9.195,7.903-10.558l0.562,1.919    C30.659,38.476,28,42.028,28,46c0,4.962,4.037,9,9,9c3.28,0,6.303-1.787,7.888-4.663l1.752,0.966C44.702,54.817,41.009,57,37,57z"></path></g><g><path fill="#01aac1" d="M40,29c-2.757,0-5-2.243-5-5s2.243-5,5-5s5,2.243,5,5S42.757,29,40,29z M40,21c-1.654,0-3,1.346-3,3    s1.346,3,3,3s3-1.346,3-3S41.654,21,40,21z"></path></g><g><path fill="#01aac1" d="M51.281,54.192C51.281,54.192,51.281,54.192,51.281,54.192c-0.727,0-1.385-0.429-1.679-1.093L47.349,48    h-9.515C36.822,48,36,47.177,36,46.166V31.834C36,30.823,36.822,30,37.834,30h4.332C43.178,30,44,30.823,44,31.834V42h6.434    c0.757,0,1.426,0.454,1.705,1.157l2.992,7.533c0.358,0.906-0.053,1.935-0.937,2.342l-2.146,0.99    C51.806,54.135,51.548,54.192,51.281,54.192z M38,46h9.457c0.725,0,1.383,0.428,1.677,1.091l2.23,5.045l1.85-0.854L50.321,44    h-6.487C42.822,44,42,43.177,42,42.166V32h-4V46z"></path></g></g></g><g id="SvgjsG1366" featureKey="Ua4uQk-0" transform="matrix(2.1260598728104148,0,0,2.1260598728104148,92.14957686190331,15.753895659779872)" fill="#111111"><path d="M12.36 6 l3.42 0 l-6.22 14 l-2.94 0 l-6.22 -14 l3.42 0 l4.28 10.1 z M20.18 5.859999999999999 l0 2.66 l-3.16 0 l0 -2.66 l3.16 0 z M20.18 9.6 l0 10.4 l-3.16 0 l0 -10.4 l3.16 0 z M29.42 20 l-3.38 -4.04 l-0.66 0.7 l0 3.34 l-3.16 0 l0 -3.78 l0 -10.36 l3.16 0 l0 6.94 l2.94 -3.2 l3.78 0 l-4.12 4.34 l5.04 6.06 l-3.6 0 z M37.6 5.859999999999999 l0 14.14 l-3.16 0 l0 -14.14 l3.16 0 z M47.120000000000005 9.6 l3.16 0 l0 10.4 l-3.16 0 l0 -1.04 c-0.14 0.36 -1.08 1.24 -2.68 1.24 c-2.38 0 -5.12 -1.7 -5.12 -5.42 c0 -3.58 2.74 -5.36 5.12 -5.36 c1.6 0 2.54 0.92 2.68 1.14 l0 -0.96 z M44.900000000000006 17.42 c1.3 0 2.36 -0.9 2.36 -2.64 c0 -1.68 -1.06 -2.58 -2.36 -2.58 c-1.36 0 -2.52 0.92 -2.52 2.58 c0 1.72 1.16 2.64 2.52 2.64 z M58.7 9.44 c1.94 0 3.92 1.3 3.92 4.6 l0 5.96 l-3.16 0 l0 -5.74 c0 -1.58 -0.54 -2.08 -1.54 -2.08 c-1.42 0 -2.24 1.38 -2.44 1.98 l0 5.84 l-3.16 0 l0 -10.4 l3.16 0 l0 1.8 c0.2 -0.5 1.26 -1.96 3.22 -1.96 z M72.02000000000001 9.6 l3.16 0 l0 10.4 c0 3.16 -3.2 4.12 -5.52 4.12 c-1.1 0 -2.1 -0.18 -2.74 -0.52 l0 -2.58 c0.64 0.34 1.6 0.48 2.74 0.48 c1.86 0 2.36 -0.96 2.36 -1.5 l0 -1.04 c-0.14 0.36 -1.08 1.24 -2.68 1.24 c-2.38 0 -5.12 -1.7 -5.12 -5.42 c0 -3.58 2.74 -5.36 5.12 -5.36 c1.6 0 2.54 0.92 2.68 1.14 l0 -0.96 z M69.8 17.42 c1.3 0 2.36 -0.9 2.36 -2.64 c0 -1.68 -1.06 -2.58 -2.36 -2.58 c-1.36 0 -2.52 0.92 -2.52 2.58 c0 1.72 1.16 2.64 2.52 2.64 z M88.06 5.76 c2.52 0 4.06 1.56 4.82 2.88 l-2.36 1.42 c-0.78 -1 -1.46 -1.46 -2.46 -1.46 c-0.86 0 -1.5 0.5 -1.5 1.2 c0 0.72 0.4 1.08 1.4 1.42 l0.94 0.34 c3.26 1.14 4.38 2.58 4.38 4.44 c0 2.92 -2.76 4.3 -5.16 4.3 c-2.56 0 -4.52 -1.52 -5.22 -3.46 l2.46 -1.32 c0.5 0.9 1.24 1.88 2.76 1.88 c1.04 0 1.82 -0.42 1.82 -1.36 c0 -0.86 -0.48 -1.26 -1.98 -1.82 l-0.8 -0.28 c-2.06 -0.74 -3.8 -1.72 -3.8 -4.28 c0 -2.28 2.16 -3.9 4.7 -3.9 z M100.16 9.42 c2.36 0 5.66 1.78 5 6.48 l-7.26 0 c0.36 1.08 1.3 1.64 2.56 1.64 c1.28 0 1.68 -0.28 2.4 -0.58 l1.74 1.68 c-0.92 0.9 -2.16 1.56 -4.26 1.56 c-2.58 0 -5.66 -1.78 -5.66 -5.36 c0 -3.64 3.12 -5.42 5.48 -5.42 z M100.16 12.120000000000001 c-0.9 0 -1.82 0.52 -2.22 1.56 l4.42 0 c-0.32 -1.04 -1.3 -1.56 -2.2 -1.56 z M118.53999999999999 9.56 l-4.66 10.44 l-2.78 0 l-4.66 -10.44 l3.14 0 l2.92 6.68 l2.9 -6.68 l3.14 0 z M127.53999999999999 9.6 l3.16 0 l0 10.4 l-3.16 0 l0 -1.04 c-0.14 0.36 -1.08 1.24 -2.68 1.24 c-2.38 0 -5.12 -1.7 -5.12 -5.42 c0 -3.58 2.74 -5.36 5.12 -5.36 c1.6 0 2.54 0.92 2.68 1.14 l0 -0.96 z M125.32 17.42 c1.3 0 2.36 -0.9 2.36 -2.64 c0 -1.68 -1.06 -2.58 -2.36 -2.58 c-1.36 0 -2.52 0.92 -2.52 2.58 c0 1.72 1.16 2.64 2.52 2.64 z"></path></g>
	</g>
</svg>
	 
